<svg xmlns="http://www.w3.org/2000/svg" viewBox="0 0 400 260" width="400" height="260">
	<rect width="400" height="260" fill="#F4F6F8"/>
	<rect x="16" y="16" width="368" height="36" rx="8" fill="#002144"/>
	<circle cx="34" cy="34" r="6" fill="#FFFFFF" opacity="0.6"/>
	<circle cx="50" cy="34" r="6" fill="#FFFFFF" opacity="0.6"/>
	<circle cx="66" cy="34" r="6" fill="#FFFFFF" opacity="0.6"/>
	<rect x="16" y="68" width="84" height="84" rx="6" fill="#801414" opacity="0.85"/>
	<rect x="106" y="68" width="84" height="84" rx="6" fill="#002144" opacity="0.75"/>
	<rect x="196" y="68" width="84" height="84" rx="6" fill="#64748B" opacity="0.6"/>
	<rect x="286" y="68" width="84" height="84" rx="6" fill="#801414" opacity="0.6"/>
	<rect x="16" y="158" width="84" height="60" rx="6" fill="#002144" opacity="0.6"/>
	<rect x="106" y="158" width="84" height="60" rx="6" fill="#801414" opacity="0.75"/>
	<rect x="196" y="158" width="84" height="60" rx="6" fill="#002144" opacity="0.85"/>
	<rect x="286" y="158" width="84" height="60" rx="6" fill="#64748B" opacity="0.6"/>
	<text x="200" y="248" text-anchor="middle" font-family="Arial, sans-serif" font-size="11" fill="#64748B">Gallery</text>
</svg>
